<svg width="1279" height="725" viewBox="0 0 1279 725" fill="none" xmlns="http://www.w3.org/2000/svg">
<path d="M234.165 119.322C248.132 213.457 260.723 264.055 239.337 303.134C212.492 352.188 121.045 114.013 129.648 138.776C149.262 182.463 154.12 329.172 89.4944 334.826M448.111 220.479C445.385 236.39 445.635 254.541 435.776 268.23C426.667 280.876 406.252 288.339 392.756 278.235C376.832 265.116 369.594 241.088 366.727 226.08M448.111 220.479C448.135 220.339 448.159 220.2 448.183 220.061C517.171 23.4832 309.907 18.0265 445.889 216.326C446.62 217.663 447.36 219.053 448.111 220.479ZM448.111 220.479C454.282 232.2 461.237 246.423 470.945 254.569C504.337 282.588 508.835 243.685 515.562 215.523C521.417 191.015 517.344 183.395 523.584 217.263C526.971 235.643 532.853 251.991 547.216 264.043M292.261 225.289C284.068 309.77 370.392 308.147 366.727 226.08M366.727 226.08C364.156 212.618 365.102 206.414 366.452 221.851C366.566 223.145 366.659 224.562 366.727 226.08ZM833.294 476.153C830.568 492.065 830.819 510.215 820.959 523.904C811.851 536.55 791.436 544.013 777.94 533.909C762.016 520.79 754.777 496.762 751.911 481.754M833.294 476.153C833.318 476.014 833.342 475.874 833.367 475.735C901.344 295.537 723.782 275.883 831.072 472.001C831.804 473.337 832.543 474.727 833.294 476.153ZM833.294 476.153C839.465 487.874 848.136 534.429 855.154 552.242M677.444 480.964C669.251 565.445 755.575 563.821 751.911 481.754M751.911 481.754C749.339 468.292 750.285 462.088 751.636 477.526C751.749 478.819 751.843 480.236 751.911 481.754ZM585.647 261.158C585.647 261.158 610.797 254.753 605.696 235.871C600.932 224.222 583.289 222.283 580.456 210.138C576.408 192.781 601.065 182.94 615.493 181.677M1033.19 390.407L1032.75 385.426M70.3961 175.09C74.2756 182.883 77.9143 190.656 81.2324 198.482M81.2324 198.482C86.8791 211.8 91.5971 225.269 94.9926 239.235M81.2324 198.482C67.4049 204.441 53.6315 211.726 41.11 219.104M81.2324 198.482C97.6326 191.415 114.109 186.215 128.663 184.942M94.9926 239.235C97.424 249.236 99.1774 259.492 100.108 270.131M94.9926 239.235C80.8299 245.507 66.802 253.093 54.199 260.663M94.9926 239.235C112.235 231.6 129.678 225.912 144.992 224.573M28.3576 191.098C32.9986 200.42 37.295 209.715 41.11 219.104M41.11 219.104C46.61 232.641 51.1096 246.374 54.199 260.663M41.11 219.104C31.6072 224.704 22.8254 230.356 15.288 235.523M54.199 260.663C55.9895 268.944 57.3063 277.413 58.0698 286.139M54.199 260.663C45.9383 265.625 38.2898 270.58 31.6167 275.154M247.777 209.392L280.545 583.939M277.364 484.729C306.156 456.642 382.994 407.483 367.51 357.208C352.018 306.909 292.12 348.534 267.239 368.999M336.032 579.861C326.27 509.165 327.919 487.124 379.181 461.42M420.863 482.769C354.515 543.49 437.892 595.674 472.15 554.847C473.272 553.51 474.325 552.176 475.312 550.844M475.312 550.844C518.755 492.261 434.222 440.308 429.567 496.442C430.228 527.961 449.288 544.998 475.312 550.844ZM475.312 550.844C517.585 560.342 578.23 540.314 608.225 504.877M608.225 504.877C589.994 453.976 565.078 364.528 604.999 356.414C675.503 342.084 636.084 471.963 608.225 504.877ZM608.225 504.877C618.091 532.424 632.358 552.127 650.011 550.583M549.23 538.058C507.009 486.623 567.857 454.53 595.65 471.22M838.693 491.79C858.166 497.433 871.645 518.416 890.832 526M849.407 486.55C849.93 472.453 864.155 456.407 872.642 446.292M931.195 397.49C934.582 436.206 918.524 545.027 977.663 539.853C1017.4 536.377 1044.08 514.824 1040.49 473.825C1033.93 398.913 1065.22 562.269 1107.27 488.928C1110.33 483.607 1133.41 644.186 1178.46 625.926C1207.77 614.042 1219.4 558.558 1217.04 528.688M1217.04 528.688C1212.67 473.338 1173.08 438.397 1166.5 500.272C1161.83 544.266 1197.73 541.797 1217.04 528.688ZM1217.04 528.688C1236.18 515.7 1257.85 490.624 1263.74 485.027M898.987 475.99C922.733 457.725 949.96 439.248 978.062 428.123M514.288 138.674L513.853 133.693" stroke="white" stroke-width="30" stroke-linecap="round"/>
</svg>
