<svg width="16" height="16" viewBox="0 0 16 16" fill="none" xmlns="http://www.w3.org/2000/svg">
<path d="M10.4385 4.7998H6.42094V5.5998H4.60219V6.63781H4.07036V7.9998H3.29688V10.3998H4.07036V11.0265H4.60219V11.1998H12.2257V11.0265H12.3434V10.3998H13.016V7.9998H12.3434V6.63781H11.8022V5.5998H10.4385V4.7998Z" fill="#37ED43"/>
<rect x="7" y="4" width="2.4" height="0.8" fill="#33CE3A"/>
<rect x="7" y="9.59961" width="2.4" height="0.8" fill="#1C7620"/>
<rect x="4.60156" y="11.2002" width="7.2" height="0.8" fill="#33CE3A"/>
<rect x="5.39844" y="4.7998" width="1.6" height="0.8" fill="#33CE3A"/>
<rect x="4.60156" y="6.40039" width="1.6" height="0.8" transform="rotate(90 4.60156 6.40039)" fill="#33CE3A"/>
<rect x="3.80078" y="8" width="2.4" height="0.8" transform="rotate(90 3.80078 8)" fill="#33CE3A"/>
<rect x="13.3984" y="8" width="2.4" height="0.8" transform="rotate(90 13.3984 8)" fill="#33CE3A"/>
<rect x="11" y="8" width="1.6" height="0.8" transform="rotate(90 11 8)" fill="#1C7620"/>
<rect x="6.19922" y="8" width="1.6" height="0.8" transform="rotate(90 6.19922 8)" fill="#1C7620"/>
<rect x="12.6016" y="6.40039" width="1.6" height="0.8" transform="rotate(90 12.6016 6.40039)" fill="#33CE3A"/>
<rect x="5.39844" y="5.59961" width="0.8" height="0.8" transform="rotate(90 5.39844 5.59961)" fill="#33CE3A"/>
<rect x="4.60156" y="10.4004" width="0.8" height="0.8" transform="rotate(90 4.60156 10.4004)" fill="#33CE3A"/>
<rect x="12.6016" y="10.4004" width="0.8" height="0.8" transform="rotate(90 12.6016 10.4004)" fill="#33CE3A"/>
<rect x="11.8008" y="5.59961" width="0.8" height="0.8" transform="rotate(90 11.8008 5.59961)" fill="#33CE3A"/>
<rect x="9.39844" y="4.7998" width="1.6" height="0.8" fill="#33CE3A"/>
</svg>
